<svg xmlns="http://www.w3.org/2000/svg" xmlns:xlink="http://www.w3.org/1999/xlink" width="1080" zoomAndPan="magnify" viewBox="0 0 810 809.999993" height="1080" preserveAspectRatio="xMidYMid meet" version="1.0"><path fill="#e02455" d="M 567 405 C 567 407.652344 566.933594 410.300781 566.804688 412.949219 C 566.675781 415.597656 566.480469 418.242188 566.21875 420.878906 C 565.960938 423.515625 565.636719 426.148438 565.246094 428.769531 C 564.859375 431.394531 564.40625 434.003906 563.886719 436.605469 C 563.371094 439.203125 562.789062 441.789062 562.144531 444.363281 C 561.5 446.933594 560.792969 449.488281 560.023438 452.027344 C 559.253906 454.5625 558.421875 457.078125 557.53125 459.574219 C 556.636719 462.074219 555.683594 464.546875 554.667969 466.996094 C 553.652344 469.445312 552.578125 471.867188 551.445312 474.265625 C 550.3125 476.660156 549.121094 479.027344 547.871094 481.367188 C 546.621094 483.703125 545.316406 486.011719 543.953125 488.285156 C 542.589844 490.558594 541.171875 492.796875 539.699219 495.003906 C 538.226562 497.207031 536.699219 499.375 535.121094 501.503906 C 533.539062 503.632812 531.910156 505.722656 530.226562 507.773438 C 528.546875 509.820312 526.816406 511.828125 525.035156 513.792969 C 523.253906 515.757812 521.425781 517.675781 519.550781 519.550781 C 517.675781 521.425781 515.757812 523.253906 513.792969 525.035156 C 511.828125 526.816406 509.820312 528.546875 507.773438 530.226562 C 505.722656 531.910156 503.632812 533.539062 501.503906 535.121094 C 499.375 536.699219 497.207031 538.226562 495.003906 539.699219 C 492.796875 541.171875 490.558594 542.589844 488.285156 543.953125 C 486.011719 545.316406 483.703125 546.621094 481.367188 547.871094 C 479.027344 549.121094 476.660156 550.3125 474.265625 551.445312 C 471.867188 552.578125 469.445312 553.652344 466.996094 554.667969 C 464.546875 555.683594 462.074219 556.636719 459.574219 557.53125 C 457.078125 558.421875 454.5625 559.253906 452.027344 560.023438 C 449.488281 560.792969 446.933594 561.5 444.363281 562.144531 C 441.789062 562.789062 439.203125 563.371094 436.605469 563.886719 C 434.003906 564.40625 431.394531 564.859375 428.769531 565.246094 C 426.148438 565.636719 423.515625 565.960938 420.878906 566.21875 C 418.242188 566.480469 415.597656 566.675781 412.949219 566.804688 C 410.300781 566.933594 407.652344 567 405 567 C 402.347656 567 399.699219 566.933594 397.050781 566.804688 C 394.402344 566.675781 391.757812 566.480469 389.121094 566.21875 C 386.484375 565.960938 383.851562 565.636719 381.230469 565.246094 C 378.605469 564.859375 375.996094 564.40625 373.394531 563.886719 C 370.796875 563.371094 368.207031 562.789062 365.636719 562.144531 C 363.066406 561.5 360.511719 560.792969 357.972656 560.023438 C 355.4375 559.253906 352.921875 558.421875 350.421875 557.53125 C 347.925781 556.636719 345.453125 555.683594 343.003906 554.667969 C 340.554688 553.652344 338.132812 552.578125 335.734375 551.445312 C 333.339844 550.3125 330.972656 549.121094 328.632812 547.871094 C 326.296875 546.621094 323.988281 545.316406 321.714844 543.953125 C 319.441406 542.589844 317.203125 541.171875 314.996094 539.699219 C 312.792969 538.226562 310.625 536.699219 308.496094 535.121094 C 306.367188 533.539062 304.277344 531.910156 302.226562 530.226562 C 300.179688 528.546875 298.171875 526.816406 296.207031 525.035156 C 294.242188 523.253906 292.324219 521.425781 290.449219 519.550781 C 288.574219 517.675781 286.746094 515.757812 284.964844 513.792969 C 283.183594 511.828125 281.453125 509.820312 279.773438 507.773438 C 278.089844 505.722656 276.460938 503.632812 274.878906 501.503906 C 273.300781 499.375 271.773438 497.207031 270.300781 495.003906 C 268.828125 492.796875 267.410156 490.558594 266.046875 488.285156 C 264.683594 486.011719 263.378906 483.703125 262.128906 481.367188 C 260.878906 479.027344 259.6875 476.660156 258.554688 474.265625 C 257.421875 471.867188 256.347656 469.445312 255.332031 466.996094 C 254.316406 464.546875 253.363281 462.074219 252.46875 459.574219 C 251.578125 457.078125 250.746094 454.5625 249.976562 452.027344 C 249.207031 449.488281 248.5 446.933594 247.855469 444.363281 C 247.210938 441.789062 246.628906 439.203125 246.113281 436.605469 C 245.59375 434.003906 245.140625 431.394531 244.753906 428.769531 C 244.363281 426.148438 244.039062 423.515625 243.78125 420.878906 C 243.519531 418.242188 243.324219 415.597656 243.195312 412.949219 C 243.066406 410.300781 243 407.652344 243 405 C 243 402.347656 243.066406 399.699219 243.195312 397.050781 C 243.324219 394.402344 243.519531 391.757812 243.78125 389.121094 C 244.039062 386.484375 244.363281 383.851562 244.753906 381.230469 C 245.140625 378.605469 245.59375 375.996094 246.113281 373.394531 C 246.628906 370.796875 247.210938 368.210938 247.855469 365.636719 C 248.5 363.066406 249.207031 360.511719 249.976562 357.972656 C 250.746094 355.4375 251.578125 352.921875 252.46875 350.421875 C 253.363281 347.925781 254.316406 345.453125 255.332031 343.003906 C 256.347656 340.554688 257.421875 338.132812 258.554688 335.734375 C 259.6875 333.339844 260.878906 330.972656 262.128906 328.632812 C 263.378906 326.296875 264.683594 323.988281 266.046875 321.714844 C 267.410156 319.441406 268.828125 317.203125 270.300781 314.996094 C 271.773438 312.792969 273.300781 310.625 274.878906 308.496094 C 276.460938 306.367188 278.089844 304.277344 279.773438 302.226562 C 281.453125 300.179688 283.183594 298.171875 284.964844 296.207031 C 286.746094 294.242188 288.574219 292.324219 290.449219 290.449219 C 292.324219 288.574219 294.242188 286.746094 296.207031 284.964844 C 298.171875 283.183594 300.179688 281.453125 302.226562 279.773438 C 304.277344 278.089844 306.367188 276.460938 308.496094 274.878906 C 310.625 273.300781 312.792969 271.773438 314.996094 270.300781 C 317.203125 268.828125 319.441406 267.410156 321.714844 266.046875 C 323.988281 264.683594 326.296875 263.378906 328.632812 262.128906 C 330.972656 260.878906 333.339844 259.6875 335.734375 258.554688 C 338.132812 257.421875 340.554688 256.347656 343.003906 255.332031 C 345.453125 254.316406 347.925781 253.363281 350.421875 252.46875 C 352.921875 251.578125 355.4375 250.746094 357.972656 249.976562 C 360.511719 249.207031 363.066406 248.5 365.636719 247.855469 C 368.207031 247.210938 370.796875 246.628906 373.394531 246.113281 C 375.996094 245.59375 378.605469 245.140625 381.230469 244.753906 C 383.851562 244.363281 386.484375 244.039062 389.121094 243.78125 C 391.757812 243.519531 394.402344 243.324219 397.050781 243.195312 C 399.699219 243.066406 402.347656 243 405 243 C 407.652344 243 410.300781 243.066406 412.949219 243.195312 C 415.597656 243.324219 418.242188 243.519531 420.878906 243.78125 C 423.515625 244.039062 426.148438 244.363281 428.769531 244.753906 C 431.394531 245.140625 434.003906 245.59375 436.605469 246.113281 C 439.203125 246.628906 441.789062 247.210938 444.363281 247.855469 C 446.933594 248.5 449.488281 249.207031 452.027344 249.976562 C 454.5625 250.746094 457.078125 251.578125 459.574219 252.46875 C 462.074219 253.363281 464.546875 254.316406 466.996094 255.332031 C 469.445312 256.347656 471.867188 257.421875 474.265625 258.554688 C 476.660156 259.6875 479.027344 260.878906 481.367188 262.128906 C 483.703125 263.378906 486.011719 264.683594 488.285156 266.046875 C 490.558594 267.410156 492.796875 268.828125 495.003906 270.300781 C 497.207031 271.773438 499.375 273.300781 501.503906 274.878906 C 503.632812 276.460938 505.722656 278.089844 507.773438 279.773438 C 509.820312 281.453125 511.828125 283.183594 513.792969 284.964844 C 515.757812 286.746094 517.675781 288.574219 519.550781 290.449219 C 521.425781 292.324219 523.253906 294.242188 525.035156 296.207031 C 526.816406 298.171875 528.546875 300.179688 530.226562 302.226562 C 531.910156 304.277344 533.539062 306.367188 535.121094 308.496094 C 536.699219 310.625 538.226562 312.792969 539.699219 314.996094 C 541.171875 317.203125 542.589844 319.441406 543.953125 321.714844 C 545.316406 323.988281 546.621094 326.296875 547.871094 328.632812 C 549.121094 330.972656 550.3125 333.339844 551.445312 335.734375 C 552.578125 338.132812 553.652344 340.554688 554.667969 343.003906 C 555.683594 345.453125 556.636719 347.925781 557.53125 350.421875 C 558.421875 352.921875 559.253906 355.4375 560.023438 357.972656 C 560.792969 360.511719 561.5 363.066406 562.144531 365.636719 C 562.789062 368.210938 563.371094 370.796875 563.886719 373.394531 C 564.40625 375.996094 564.859375 378.605469 565.246094 381.230469 C 565.636719 383.851562 565.960938 386.484375 566.21875 389.121094 C 566.480469 391.757812 566.675781 394.402344 566.804688 397.050781 C 566.933594 399.699219 567 402.347656 567 405 Z M 567 405 " fill-opacity="1" fill-rule="nonzero"/><path fill="#ffffff" d="M 391.90625 414.5 L 372.136719 330.289062 C 369.828125 320.277344 359.300781 314.371094 349.289062 317.453125 L 327.722656 324.128906 C 317.710938 327.210938 312.832031 338.25 316.683594 347.746094 L 349.546875 427.078125 C 352.882812 435.292969 361.613281 439.660156 370.082031 437.605469 L 378.554688 435.550781 C 388.3125 433.496094 394.21875 424 391.90625 414.5 Z M 391.90625 414.5 " fill-opacity="1" fill-rule="nonzero"/><path fill="#ffffff" d="M 411.675781 473.292969 C 411.675781 474.058594 411.636719 474.820312 411.5625 475.582031 C 411.488281 476.34375 411.375 477.097656 411.226562 477.847656 C 411.078125 478.601562 410.890625 479.339844 410.667969 480.074219 C 410.445312 480.804688 410.191406 481.523438 409.898438 482.230469 C 409.605469 482.9375 409.277344 483.628906 408.917969 484.304688 C 408.554688 484.980469 408.164062 485.636719 407.738281 486.269531 C 407.3125 486.90625 406.855469 487.519531 406.371094 488.113281 C 405.886719 488.703125 405.375 489.269531 404.832031 489.8125 C 404.292969 490.351562 403.726562 490.867188 403.132812 491.351562 C 402.542969 491.835938 401.929688 492.292969 401.292969 492.71875 C 400.65625 493.140625 400 493.535156 399.324219 493.894531 C 398.652344 494.257812 397.960938 494.582031 397.253906 494.875 C 396.546875 495.167969 395.828125 495.425781 395.09375 495.648438 C 394.363281 495.871094 393.621094 496.054688 392.871094 496.207031 C 392.121094 496.355469 391.363281 496.46875 390.601562 496.542969 C 389.839844 496.617188 389.078125 496.65625 388.3125 496.65625 C 387.546875 496.65625 386.785156 496.617188 386.023438 496.542969 C 385.261719 496.46875 384.503906 496.355469 383.753906 496.207031 C 383.003906 496.054688 382.261719 495.871094 381.53125 495.648438 C 380.796875 495.425781 380.078125 495.167969 379.371094 494.875 C 378.664062 494.582031 377.972656 494.257812 377.300781 493.894531 C 376.625 493.535156 375.96875 493.140625 375.332031 492.71875 C 374.695312 492.292969 374.082031 491.835938 373.492188 491.351562 C 372.898438 490.867188 372.332031 490.351562 371.792969 489.8125 C 371.25 489.269531 370.738281 488.703125 370.253906 488.113281 C 369.765625 487.519531 369.3125 486.90625 368.886719 486.269531 C 368.460938 485.636719 368.070312 484.980469 367.707031 484.304688 C 367.347656 483.628906 367.019531 482.9375 366.726562 482.230469 C 366.433594 481.523438 366.175781 480.804688 365.957031 480.074219 C 365.734375 479.339844 365.546875 478.601562 365.398438 477.847656 C 365.25 477.097656 365.136719 476.34375 365.0625 475.582031 C 364.988281 474.820312 364.949219 474.058594 364.949219 473.292969 C 364.949219 472.527344 364.988281 471.761719 365.0625 471 C 365.136719 470.238281 365.25 469.484375 365.398438 468.734375 C 365.546875 467.984375 365.734375 467.242188 365.957031 466.507812 C 366.175781 465.777344 366.433594 465.058594 366.726562 464.351562 C 367.019531 463.644531 367.347656 462.953125 367.707031 462.277344 C 368.070312 461.605469 368.460938 460.949219 368.886719 460.3125 C 369.3125 459.675781 369.765625 459.0625 370.253906 458.46875 C 370.738281 457.878906 371.25 457.3125 371.792969 456.773438 C 372.332031 456.230469 372.898438 455.71875 373.492188 455.230469 C 374.082031 454.746094 374.695312 454.292969 375.332031 453.867188 C 375.96875 453.441406 376.625 453.046875 377.300781 452.6875 C 377.972656 452.328125 378.664062 452 379.371094 451.707031 C 380.078125 451.414062 380.796875 451.15625 381.53125 450.933594 C 382.261719 450.710938 383.003906 450.527344 383.753906 450.378906 C 384.503906 450.226562 385.261719 450.117188 386.023438 450.042969 C 386.785156 449.964844 387.546875 449.929688 388.3125 449.929688 C 389.078125 449.929688 389.839844 449.964844 390.601562 450.042969 C 391.363281 450.117188 392.121094 450.226562 392.871094 450.378906 C 393.621094 450.527344 394.363281 450.710938 395.09375 450.933594 C 395.828125 451.15625 396.546875 451.414062 397.253906 451.707031 C 397.960938 452 398.652344 452.328125 399.324219 452.6875 C 400 453.046875 400.65625 453.441406 401.292969 453.867188 C 401.929688 454.292969 402.542969 454.746094 403.132812 455.230469 C 403.726562 455.71875 404.292969 456.230469 404.832031 456.769531 C 405.375 457.3125 405.886719 457.878906 406.371094 458.46875 C 406.855469 459.0625 407.3125 459.675781 407.738281 460.3125 C 408.164062 460.949219 408.554688 461.605469 408.917969 462.277344 C 409.277344 462.953125 409.605469 463.644531 409.898438 464.351562 C 410.191406 465.058594 410.445312 465.777344 410.667969 466.507812 C 410.890625 467.242188 411.078125 467.984375 411.226562 468.734375 C 411.375 469.484375 411.488281 470.238281 411.5625 471 C 411.636719 471.761719 411.675781 472.527344 411.675781 473.292969 Z M 411.675781 473.292969 " fill-opacity="1" fill-rule="nonzero"/><path fill="#ffffff" d="M 457.375 466.875 C 483.304688 450.441406 499.992188 420.402344 484.84375 384.460938 C 469.699219 348.519531 432.726562 345.179688 416.554688 346.722656 C 397.554688 348.519531 394.21875 359.558594 394.21875 359.558594 C 394.21875 359.558594 394.21875 386 407.824219 389.339844 C 421.429688 392.675781 432.726562 378.300781 445.308594 399.09375 C 457.375 418.863281 437.605469 432.214844 432.214844 433.496094 C 426.566406 434.78125 418.09375 442.996094 422.972656 454.292969 C 427.335938 465.589844 431.957031 483.046875 457.375 466.875 Z M 457.375 466.875 " fill-opacity="1" fill-rule="nonzero"/></svg>