<svg xmlns="http://www.w3.org/2000/svg" xmlns:xlink="http://www.w3.org/1999/xlink" width="1080" zoomAndPan="magnify" viewBox="0 0 810 809.999993" height="1080" preserveAspectRatio="xMidYMid meet" version="1.0"><defs><clipPath id="27193fc83a"><path d="M 191.988281 169.125 L 643.488281 169.125 L 643.488281 620.625 L 191.988281 620.625 Z M 191.988281 169.125 " clip-rule="nonzero"/></clipPath></defs><g clip-path="url(#27193fc83a)"><path fill="#1b9df0" d="M 643.488281 394.875 C 643.488281 398.566406 643.398438 402.261719 643.21875 405.949219 C 643.035156 409.640625 642.765625 413.324219 642.402344 417 C 642.039062 420.675781 641.589844 424.34375 641.046875 427.996094 C 640.503906 431.652344 639.871094 435.292969 639.152344 438.914062 C 638.429688 442.539062 637.621094 446.140625 636.722656 449.726562 C 635.828125 453.308594 634.839844 456.871094 633.769531 460.40625 C 632.695312 463.941406 631.539062 467.449219 630.292969 470.925781 C 629.050781 474.40625 627.71875 477.851562 626.304688 481.265625 C 624.890625 484.675781 623.394531 488.054688 621.816406 491.394531 C 620.234375 494.734375 618.574219 498.03125 616.832031 501.292969 C 615.09375 504.550781 613.273438 507.761719 611.371094 510.933594 C 609.472656 514.101562 607.496094 517.222656 605.445312 520.292969 C 603.390625 523.367188 601.265625 526.386719 599.0625 529.351562 C 596.863281 532.320312 594.589844 535.230469 592.246094 538.085938 C 589.902344 540.945312 587.492188 543.742188 585.007812 546.476562 C 582.527344 549.214844 579.980469 551.890625 577.371094 554.503906 C 574.757812 557.113281 572.082031 559.660156 569.34375 562.144531 C 566.605469 564.625 563.808594 567.035156 560.953125 569.378906 C 558.097656 571.722656 555.1875 573.996094 552.21875 576.199219 C 549.25 578.398438 546.230469 580.523438 543.160156 582.578125 C 540.089844 584.628906 536.96875 586.605469 533.796875 588.503906 C 530.628906 590.40625 527.417969 592.226562 524.15625 593.96875 C 520.898438 595.707031 517.601562 597.371094 514.261719 598.949219 C 510.921875 600.527344 507.542969 602.023438 504.128906 603.4375 C 500.71875 604.851562 497.269531 606.183594 493.792969 607.425781 C 490.3125 608.671875 486.808594 609.832031 483.273438 610.902344 C 479.734375 611.976562 476.175781 612.960938 472.59375 613.859375 C 469.007812 614.753906 465.40625 615.566406 461.78125 616.285156 C 458.15625 617.007812 454.519531 617.636719 450.863281 618.179688 C 447.210938 618.722656 443.542969 619.175781 439.867188 619.535156 C 436.191406 619.898438 432.507812 620.171875 428.816406 620.351562 C 425.125 620.53125 421.433594 620.625 417.738281 620.625 C 414.046875 620.625 410.351562 620.53125 406.664062 620.351562 C 402.972656 620.171875 399.289062 619.898438 395.613281 619.535156 C 391.9375 619.175781 388.269531 618.722656 384.617188 618.179688 C 380.960938 617.636719 377.320312 617.007812 373.699219 616.285156 C 370.074219 615.566406 366.472656 614.753906 362.886719 613.859375 C 359.304688 612.960938 355.742188 611.976562 352.207031 610.902344 C 348.671875 609.832031 345.164062 608.671875 341.6875 607.425781 C 338.207031 606.183594 334.761719 604.851562 331.347656 603.4375 C 327.9375 602.023438 324.558594 600.527344 321.21875 598.949219 C 317.878906 597.371094 314.582031 595.707031 311.320312 593.96875 C 308.0625 592.226562 304.851562 590.40625 301.679688 588.503906 C 298.511719 586.605469 295.390625 584.628906 292.320312 582.578125 C 289.25 580.523438 286.226562 578.398438 283.261719 576.199219 C 280.292969 573.996094 277.382812 571.722656 274.527344 569.378906 C 271.667969 567.035156 268.875 564.625 266.136719 562.144531 C 263.398438 559.660156 260.722656 557.113281 258.109375 554.503906 C 255.5 551.890625 252.953125 549.214844 250.46875 546.476562 C 247.988281 543.742188 245.578125 540.945312 243.234375 538.085938 C 240.890625 535.230469 238.617188 532.320312 236.414062 529.351562 C 234.214844 526.386719 232.089844 523.367188 230.035156 520.292969 C 227.984375 517.222656 226.007812 514.101562 224.109375 510.933594 C 222.207031 507.761719 220.386719 504.550781 218.644531 501.292969 C 216.90625 498.03125 215.242188 494.734375 213.664062 491.394531 C 212.085938 488.054688 210.589844 484.675781 209.175781 481.265625 C 207.761719 477.851562 206.429688 474.40625 205.1875 470.925781 C 203.941406 467.449219 202.78125 463.941406 201.710938 460.40625 C 200.636719 456.871094 199.652344 453.308594 198.753906 449.726562 C 197.859375 446.140625 197.046875 442.539062 196.328125 438.914062 C 195.605469 435.292969 194.976562 431.652344 194.433594 427.996094 C 193.890625 424.34375 193.4375 420.675781 193.078125 417 C 192.714844 413.324219 192.441406 409.640625 192.261719 405.949219 C 192.082031 402.261719 191.988281 398.566406 191.988281 394.875 C 191.988281 391.179688 192.082031 387.488281 192.261719 383.796875 C 192.441406 380.105469 192.714844 376.421875 193.078125 372.746094 C 193.4375 369.070312 193.890625 365.402344 194.433594 361.75 C 194.976562 358.09375 195.605469 354.457031 196.328125 350.832031 C 197.046875 347.207031 197.859375 343.605469 198.753906 340.019531 C 199.652344 336.4375 200.636719 332.878906 201.710938 329.339844 C 202.78125 325.804688 203.941406 322.300781 205.1875 318.820312 C 206.429688 315.34375 207.761719 311.894531 209.175781 308.484375 C 210.589844 305.070312 212.085938 301.691406 213.664062 298.351562 C 215.242188 295.011719 216.90625 291.714844 218.644531 288.457031 C 220.386719 285.199219 222.207031 281.984375 224.109375 278.816406 C 226.007812 275.644531 227.984375 272.527344 230.035156 269.453125 C 232.089844 266.382812 234.214844 263.363281 236.414062 260.394531 C 238.617188 257.425781 240.890625 254.515625 243.234375 251.660156 C 245.578125 248.804688 247.988281 246.007812 250.46875 243.269531 C 252.953125 240.53125 255.5 237.855469 258.109375 235.242188 C 260.722656 232.632812 263.398438 230.085938 266.136719 227.605469 C 268.875 225.121094 271.667969 222.710938 274.527344 220.367188 C 277.382812 218.023438 280.292969 215.75 283.261719 213.550781 C 286.226562 211.347656 289.25 209.222656 292.320312 207.167969 C 295.390625 205.117188 298.511719 203.140625 301.679688 201.242188 C 304.851562 199.34375 308.0625 197.519531 311.320312 195.78125 C 314.582031 194.039062 317.878906 192.378906 321.21875 190.796875 C 324.558594 189.21875 327.9375 187.722656 331.347656 186.308594 C 334.761719 184.894531 338.207031 183.566406 341.6875 182.320312 C 345.164062 181.074219 348.671875 179.917969 352.207031 178.84375 C 355.742188 177.773438 359.304688 176.785156 362.886719 175.890625 C 366.472656 174.992188 370.074219 174.183594 373.699219 173.460938 C 377.320312 172.742188 380.960938 172.109375 384.617188 171.566406 C 388.269531 171.023438 391.9375 170.574219 395.613281 170.210938 C 399.289062 169.847656 402.972656 169.578125 406.664062 169.394531 C 410.351562 169.214844 414.046875 169.125 417.738281 169.125 C 421.433594 169.125 425.125 169.214844 428.816406 169.394531 C 432.507812 169.578125 436.191406 169.847656 439.867188 170.210938 C 443.542969 170.574219 447.210938 171.023438 450.863281 171.566406 C 454.519531 172.109375 458.15625 172.742188 461.78125 173.460938 C 465.40625 174.183594 469.007812 174.992188 472.59375 175.890625 C 476.175781 176.785156 479.734375 177.773438 483.273438 178.84375 C 486.808594 179.917969 490.3125 181.074219 493.792969 182.320312 C 497.269531 183.566406 500.71875 184.894531 504.128906 186.308594 C 507.542969 187.722656 510.921875 189.21875 514.261719 190.796875 C 517.601562 192.378906 520.898438 194.039062 524.15625 195.78125 C 527.417969 197.519531 530.628906 199.34375 533.796875 201.242188 C 536.96875 203.140625 540.089844 205.117188 543.160156 207.167969 C 546.230469 209.222656 549.25 211.347656 552.21875 213.550781 C 555.1875 215.75 558.097656 218.023438 560.953125 220.367188 C 563.808594 222.710938 566.605469 225.121094 569.34375 227.605469 C 572.082031 230.085938 574.757812 232.632812 577.371094 235.242188 C 579.980469 237.855469 582.527344 240.53125 585.007812 243.269531 C 587.492188 246.007812 589.902344 248.804688 592.246094 251.660156 C 594.589844 254.515625 596.863281 257.425781 599.0625 260.394531 C 601.265625 263.363281 603.390625 266.382812 605.445312 269.453125 C 607.496094 272.527344 609.472656 275.644531 611.371094 278.816406 C 613.273438 281.984375 615.09375 285.199219 616.832031 288.457031 C 618.574219 291.714844 620.234375 295.011719 621.816406 298.351562 C 623.394531 301.691406 624.890625 305.070312 626.304688 308.484375 C 627.71875 311.894531 629.050781 315.34375 630.292969 318.820312 C 631.539062 322.300781 632.695312 325.804688 633.769531 329.339844 C 634.839844 332.878906 635.828125 336.4375 636.722656 340.019531 C 637.621094 343.605469 638.429688 347.207031 639.152344 350.832031 C 639.871094 354.457031 640.503906 358.09375 641.046875 361.75 C 641.589844 365.402344 642.039062 369.070312 642.402344 372.746094 C 642.765625 376.421875 643.035156 380.105469 643.21875 383.796875 C 643.398438 387.488281 643.488281 391.179688 643.488281 394.875 Z M 643.488281 394.875 " fill-opacity="1" fill-rule="nonzero"/></g><path fill="#ffffff" d="M 376.429688 513.957031 C 476.546875 513.957031 531.292969 430.992188 531.292969 359.09375 C 531.292969 356.722656 531.292969 354.351562 531.179688 352.09375 C 541.789062 344.417969 551.046875 334.824219 558.382812 323.875 C 548.675781 328.164062 538.175781 331.097656 527.117188 332.453125 C 538.402344 325.679688 546.980469 315.070312 551.046875 302.316406 C 540.546875 308.523438 528.921875 313.039062 516.503906 315.523438 C 506.574219 304.910156 492.464844 298.367188 476.773438 298.367188 C 446.75 298.367188 422.367188 322.746094 422.367188 352.769531 C 422.367188 357.058594 422.820312 361.238281 423.835938 365.1875 C 378.574219 362.929688 338.5 341.257812 311.636719 308.296875 C 307.007812 316.3125 304.300781 325.679688 304.300781 335.613281 C 304.300781 354.464844 313.894531 371.167969 328.570312 380.878906 C 319.652344 380.652344 311.300781 378.167969 303.960938 374.105469 C 303.960938 374.332031 303.960938 374.554688 303.960938 374.78125 C 303.960938 401.195312 322.699219 423.09375 347.644531 428.171875 C 343.128906 429.414062 338.277344 430.089844 333.308594 430.089844 C 329.808594 430.089844 326.425781 429.75 323.039062 429.074219 C 329.921875 450.746094 350.015625 466.4375 373.832031 466.886719 C 355.207031 481.449219 331.730469 490.140625 306.21875 490.140625 C 301.816406 490.140625 297.527344 489.914062 293.238281 489.351562 C 317.054688 504.925781 345.726562 513.957031 376.429688 513.957031 " fill-opacity="1" fill-rule="nonzero"/></svg>